<svg width="520" height="140" viewBox="0 0 520 140" fill="none" xmlns="http://www.w3.org/2000/svg" role="img" aria-labelledby="title desc">
<title id="title">Rise Therapy & Wellness logo</title><desc id="desc">Sun spiral icon with Rise Therapy & Wellness wordmark.</desc>
<g transform="translate(10 8)">
<path d="M58 60c-1-15 13-28 29-23 18 6 21 31 5 43-19 15-49 4-55-23-6-29 15-58 47-62 35-4 66 22 71 59 6 45-29 84-74 85" stroke="#FDBA21" stroke-width="9" stroke-linecap="round"/>
<path d="M58 60c1-6 7-10 13-9 8 2 11 12 6 18-7 9-23 7-29-4-8-16 1-36 20-42 22-7 45 8 50 31 6 29-15 57-46 60" stroke="#FDBA21" stroke-width="9" stroke-linecap="round"/>
<g stroke="#F15A24" stroke-width="10" stroke-linecap="round">
<path d="M74 4V24"/><path d="M105 12l-9 19"/><path d="M130 31l-16 12"/><path d="M146 59l-20 4"/><path d="M142 91l-19-8"/><path d="M121 116l-12-16"/><path d="M43 8l8 19"/><path d="M17 29l16 13"/><path d="M2 58l20 5"/><path d="M7 90l19-8"/><path d="M29 115l12-16"/>
</g></g>
<text x="186" y="62" font-family="Montserrat, Arial, sans-serif" font-size="56" font-weight="800" letter-spacing="12" fill="#264653">RISE</text>
<text x="188" y="95" font-family="Montserrat, Arial, sans-serif" font-size="18" font-weight="700" letter-spacing="1.8" fill="#2D2420">THERAPY &amp; WELLNESS</text>
</svg>
