<svg xmlns="http://www.w3.org/2000/svg" viewBox="0 0 1200 720" role="img" aria-labelledby="title desc">
  <title id="title">Rise welcome packet and branded materials</title>
  <desc id="desc">A warm branded mockup of Rise Therapy and Wellness welcome packet materials.</desc>
  <defs>
    <linearGradient id="bg" x1="0" y1="0" x2="1" y2="1"><stop offset="0" stop-color="#FFFDF7"/><stop offset="1" stop-color="#F8E7CF"/></linearGradient>
    <linearGradient id="card" x1="0" y1="0" x2="1" y2="1"><stop offset="0" stop-color="#ffffff"/><stop offset="1" stop-color="#FFF4E3"/></linearGradient>
    <filter id="shadow" x="-20%" y="-20%" width="140%" height="140%"><feDropShadow dx="0" dy="26" stdDeviation="28" flood-color="#264653" flood-opacity="0.16"/></filter>
  </defs>
  <rect width="1200" height="720" rx="42" fill="url(#bg)"/>
  <circle cx="1000" cy="130" r="130" fill="#FDBA21" opacity="0.22"/>
  <circle cx="165" cy="580" r="180" fill="#2A9D8F" opacity="0.12"/>
  <g filter="url(#shadow)" transform="translate(132 86)">
    <rect x="210" y="42" width="560" height="420" rx="30" fill="url(#card)" transform="rotate(4 490 252)"/>
    <rect x="140" y="0" width="560" height="430" rx="32" fill="#fff"/>
    <rect x="140" y="0" width="560" height="96" rx="32" fill="#264653"/>
    <path d="M140 70h560v42H140z" fill="#264653"/>
    <g transform="translate(178 26) scale(.54)">
      <circle cx="45" cy="45" r="34" fill="none" stroke="#FDBA21" stroke-width="8"/>
      <path d="M45 17v-15M45 88v15M17 45H2M88 45h15M25 25 14 14M65 65l11 11M65 25l11-11M25 65 14 76" stroke="#F15A24" stroke-width="8" stroke-linecap="round"/>
    </g>
    <text x="245" y="62" font-family="Montserrat, Arial, sans-serif" font-size="38" font-weight="800" fill="#fff">rise</text>
    <text x="180" y="158" font-family="Montserrat, Arial, sans-serif" font-size="24" font-weight="800" letter-spacing="4" fill="#F15A24">WELCOME PACKET</text>
    <text x="180" y="216" font-family="League Spartan, Montserrat, Arial, sans-serif" font-size="56" font-weight="800" fill="#264653">Start here with care.</text>
    <rect x="180" y="262" width="390" height="18" rx="9" fill="#E8DDD0"/>
    <rect x="180" y="300" width="460" height="18" rx="9" fill="#E8DDD0"/>
    <rect x="180" y="338" width="330" height="18" rx="9" fill="#E8DDD0"/>
    <rect x="180" y="390" width="176" height="48" rx="24" fill="#FDBA21"/>
    <rect x="382" y="390" width="176" height="48" rx="24" fill="#F15A24" opacity="0.9"/>
  </g>
  <g filter="url(#shadow)" transform="translate(760 210)">
    <rect width="250" height="310" rx="28" fill="#fff"/>
    <rect x="32" y="36" width="186" height="24" rx="12" fill="#264653"/>
    <rect x="32" y="82" width="156" height="14" rx="7" fill="#F15A24" opacity="0.8"/>
    <rect x="32" y="124" width="186" height="12" rx="6" fill="#E8DDD0"/>
    <rect x="32" y="158" width="168" height="12" rx="6" fill="#E8DDD0"/>
    <rect x="32" y="192" width="186" height="12" rx="6" fill="#E8DDD0"/>
    <circle cx="184" cy="246" r="34" fill="#FDBA21" opacity="0.9"/>
  </g>
</svg>